<?xml version="1.0" encoding="utf-8"?>
<!-- Generator: Adobe Illustrator 24.0.3, SVG Export Plug-In . SVG Version: 6.00 Build 0)  -->
<svg version="1.1" id="Layer_1" xmlns="http://www.w3.org/2000/svg" xmlns:xlink="http://www.w3.org/1999/xlink" x="0px" y="0px"
	 viewBox="0 0 63.55 44.46" style="enable-background:new 0 0 63.55 44.46;" xml:space="preserve">
<style type="text/css">
	.st0{fill:none;stroke:#F36F24;stroke-width:2.4;stroke-miterlimit:10;}
	.st1{fill:#F36F24;}
</style>
<g>
	<path class="st0" d="M35.46,28.52l5.81,5.89c0.35,0.36,0.72,0.7,1.13,0.99c6.08,4.22,13.52,0.5,13.64-6.63v0
		c0.35-7.14-8.38-11.89-13.93-7.14L35.46,28.52z"/>
	<path class="st0" d="M27.91,28.52l-6.34,6.42c-6.19,4.92-14.12,1.19-14.25-6.18v0c-0.35-7.14,8.38-11.89,13.93-7.14L27.91,28.52z"
		/>
	<path class="st0" d="M37.92,17.92l-6.14,6.36l-6.14-6.36c-0.76-0.79-1.58-1.53-2.5-2.11C13.78,9.86,0.65,17.65,1.22,29.05
		c0.22,12.29,13.26,18.58,23.64,10.76c0.28-0.21,0.55-0.46,0.78-0.69l6.13-6.21l6.13,6.21c0.28,0.22,0.5,0.48,0.78,0.69
		c10.38,7.82,23.42,1.52,23.64-10.76C62.9,17.65,49.77,9.86,40.42,15.8C39.49,16.39,38.68,17.13,37.92,17.92z"/>
	<circle class="st1" cx="31.66" cy="6.54" r="6.54"/>
</g>
</svg>
